<?xml version="1.0" encoding="UTF-8"?>
<svg width="207px" height="124px" viewBox="0 0 207 124" version="1.1" xmlns="http://www.w3.org/2000/svg" xmlns:xlink="http://www.w3.org/1999/xlink">
    <g stroke="none" stroke-width="1" fill="none" fill-rule="evenodd">
        <g transform="translate(-247.000000, -138.000000)" fill="#000000" fill-rule="nonzero">
            <g transform="translate(247.000000, 138.000000)">
                <path d="M48.9421964,32.6320058 L87.9011585,32.6320058 L87.9011585,35.7136421 L52.5134345,35.7136421 L52.5134345,58.9070103 L85.7908813,58.9070103 L85.7908813,61.9886466 L52.5134345,61.9886466 L52.5134345,87.4526941 L88.306981,87.4526941 L88.306981,90.5343303 L48.9421964,90.5343303 L48.9421964,32.6320058 Z M91.3912326,32.6320058 L95.5306221,32.6320058 L113.8738,58.0960534 L132.622801,32.6320058 L158.124498,0.286809811 L116.22757,60.7722112 L137.817329,90.5343303 L133.51561,90.5343303 L113.8738,63.4483691 L94.1508254,90.5343303 L89.9302715,90.5343303 L111.682358,60.7722112 L91.3912326,32.6320058 Z M139.359455,35.713642 L139.359455,32.6320058 L183.756439,32.6320058 L183.756439,35.7136421 L163.302983,35.7136421 L163.302983,90.5343303 L159.731745,90.5343303 L159.731745,35.7136421 L139.359455,35.713642 Z" id="next"></path>
                <polygon id="js" points="0.202923647 32.6320058 4.66697141 32.6320058 66.2235778 124.303087 40.785176 90.5343303 3.93649086 37.0111732 3.77416185 90.5343303 0.202923647 90.5343303"></polygon>
            </g>
        </g>
    </g>
</svg>
